<svg xmlns="http://www.w3.org/2000/svg" viewBox="0 0 800 400" font-family="Segoe UI, Ubuntu, Helvetica, Arial, sans-serif">
  <rect width="800" height="400" rx="16" fill="#0b1220"/>
  <g stroke="#16233c" opacity=".5"><path d="M0 100H800M0 200H800M0 300H800M160 0V400M320 0V400M480 0V400M640 0V400"/></g>
  <text x="44" y="66" fill="#22d3ee" font-size="15" letter-spacing="4">05 &#183; COMMS SYSTEMS SIMULATION</text>
  <text x="44" y="120" fill="#e5edf7" font-size="38" font-weight="700">Spectral Estimation,</text>
  <text x="44" y="166" fill="#e5edf7" font-size="38" font-weight="700">BER &amp; Synthesis</text>
  <g font-size="13" fill="#9fb3d1">
    <rect x="44" y="200" width="102" height="26" rx="13" fill="#12233f" stroke="#1f3a5f"/><text x="56" y="218">Welch/STFT</text>
    <rect x="156" y="200" width="106" height="26" rx="13" fill="#12233f" stroke="#1f3a5f"/><text x="168" y="218">Monte Carlo</text>
    <rect x="272" y="200" width="76" height="26" rx="13" fill="#12233f" stroke="#1f3a5f"/><text x="284" y="218">CORDIC</text>
    <rect x="358" y="200" width="54" height="26" rx="13" fill="#12233f" stroke="#1f3a5f"/><text x="370" y="218">DDS</text>
  </g>
  <line x1="470" y1="310" x2="770" y2="310" stroke="#34537d" stroke-width="2"/>
  <g fill="#22d3ee" opacity="0.9">
    <g transform="translate(480,310)"><rect x="0" y="-40" width="20" height="40" rx="3"/><animateTransform attributeName="transform" type="scale" additive="sum" values="1 0.55;1 1;1 0.55" dur="1.3s" repeatCount="indefinite"/></g>
    <g transform="translate(512,310)"><rect x="0" y="-75" width="20" height="75" rx="3"/><animateTransform attributeName="transform" type="scale" additive="sum" values="1 0.6;1 1;1 0.6" dur="1.5s" repeatCount="indefinite"/></g>
    <g transform="translate(544,310)"><rect x="0" y="-120" width="20" height="120" rx="3"/><animateTransform attributeName="transform" type="scale" additive="sum" values="1 0.5;1 1;1 0.5" dur="1.7s" repeatCount="indefinite"/></g>
    <g transform="translate(576,310)"><rect x="0" y="-150" width="20" height="150" rx="3"/><animateTransform attributeName="transform" type="scale" additive="sum" values="1 0.65;1 1;1 0.65" dur="1.4s" repeatCount="indefinite"/></g>
    <g transform="translate(608,310)"><rect x="0" y="-120" width="20" height="120" rx="3"/><animateTransform attributeName="transform" type="scale" additive="sum" values="1 0.55;1 1;1 0.55" dur="1.9s" repeatCount="indefinite"/></g>
    <g transform="translate(640,310)"><rect x="0" y="-90" width="20" height="90" rx="3"/><animateTransform attributeName="transform" type="scale" additive="sum" values="1 0.6;1 1;1 0.6" dur="1.6s" repeatCount="indefinite"/></g>
    <g transform="translate(672,310)"><rect x="0" y="-60" width="20" height="60" rx="3"/><animateTransform attributeName="transform" type="scale" additive="sum" values="1 0.5;1 1;1 0.5" dur="1.8s" repeatCount="indefinite"/></g>
    <g transform="translate(704,310)"><rect x="0" y="-110" width="20" height="110" rx="3"/><animateTransform attributeName="transform" type="scale" additive="sum" values="1 0.65;1 1;1 0.65" dur="1.45s" repeatCount="indefinite"/></g>
    <g transform="translate(736,310)"><rect x="0" y="-70" width="20" height="70" rx="3"/><animateTransform attributeName="transform" type="scale" additive="sum" values="1 0.55;1 1;1 0.55" dur="1.65s" repeatCount="indefinite"/></g>
  </g>
  <path d="M470 265 C520 250 540 195 576 165 C610 140 640 205 680 240 C710 262 745 268 770 262" fill="none" stroke="#f59e0b" stroke-width="2" stroke-dasharray="5 5" opacity="0.8"/>
</svg>
